<svg width="96" height="45" viewBox="0 0 96 45" fill="none" xmlns="http://www.w3.org/2000/svg">
<path d="M3.15 21.05V22.1H1.05V14.75H3.15V16.85H4.2V17.9H5.25V18.95H6.3V20H8.4V21.05H10.5V20H12.6V18.95H13.65V15.8H12.6V14.75H9.45V13.7H6.3V12.65H4.2V11.6H3.15V10.55H2.1V9.5H1.05V5.3H2.1V3.2H3.15V2.15H4.2V1.1H11.55V2.15H12.6V3.2H13.65V1.1H15.75V8.45H14.7V7.4H13.65V5.3H12.6V4.25H11.55V3.2H5.25V7.4H6.3V8.45H9.45V9.5H12.6V10.55H14.7V11.6H16.8V13.7H17.85V17.9H16.8V20H15.75V21.05H13.65V22.1H6.3V21.05H5.25V20H4.2V18.95H3.15V20H4.2V21.05H3.15ZM24.1465 8.45V9.5H26.2465V20H29.3965V21.05H28.3465V22.1H23.0965V21.05H22.0465V8.45H19.9465V7.4H20.9965V6.35H22.0465V5.3H23.0965V4.25H24.1465V3.2H25.1965V2.15H26.2465V7.4H30.4465V8.45H24.1465ZM30.4465 20H29.3965V18.95H30.4465V20ZM38.8441 7.4V20H41.9941V18.95H45.1441V17.9H44.0941V10.55H43.0441V9.5H41.9941V8.45H44.0941V7.4H48.2941V20H49.3441V22.1H44.0941V20H43.0441V21.05H41.9941V22.1H35.6941V21.05H34.6441V10.55H33.5941V9.5H32.5441V8.45H34.6441V7.4H38.8441ZM59.8406 21.05V22.1H54.5906V21.05H53.5406V20H52.4906V17.9H51.4406V12.65H52.4906V10.55H53.5406V9.5H54.5906V8.45H55.6406V7.4H61.9406V2.15H59.8406V1.1H64.0406V0.049998H66.1406V20H67.1906V22.1H61.9406V20H60.8906V18.95H61.9406V8.45H57.7406V9.5H56.6906V11.6H55.6406V16.85H56.6906V18.95H57.7406V20H60.8906V21.05H59.8406ZM61.9406 18.95V20H62.9906V18.95H61.9406ZM72.4371 4.25V1.1H76.6371V4.25H72.4371ZM78.7371 21.05V22.1H69.2871V21.05H71.3871V20H72.4371V10.55H71.3871V9.5H70.3371V8.45H72.4371V7.4H76.6371V21.05H78.7371ZM90.3 21.05V22.1H84V21.05H81.9V20H80.85V18.95H79.8V11.6H80.85V9.5H81.9V8.45H82.95V7.4H91.35V8.45H92.4V9.5H93.45V10.55H94.5V17.9H93.45V20H92.4V21.05H90.3ZM86.1 21.05H88.2V20H89.25V18.95H90.3V11.6H89.25V9.5H88.2V8.45H85.05V10.55H84V17.9H85.05V20H86.1V21.05Z" fill="#294224"/>
<path d="M12.3211 38.06H14.8411V37.22H16.5211V36.38H17.3611V34.7H18.2011V32.18H19.0411V29.66H18.2011V28.82H16.5211V29.66H14.8411V30.5H14.0011V29.66H14.8411V28.82H15.6811V27.98H17.3611V27.14H19.0411V27.98H19.8811V28.82H20.7211V33.86H19.8811V35.54H19.0411V36.38H18.2011V37.22H17.3611V38.06H16.5211V38.9H11.4811V38.06H10.6411V39.74H9.80109V41.42H8.96109V43.94H10.6411V44.78H4.76109V43.94H5.60109V43.1H6.44109V42.26H7.28109V40.58H8.12109V38.06H8.96109V36.38H9.80109V33.86H10.6411V31.34H11.4811V28.82H10.6411V27.98H13.1611V27.14H14.8411V28.82H14.0011V29.66H13.1611V30.5H14.0011V31.34H12.3211V32.18H13.1611V33.02H12.3211V34.7H11.4811V37.22H12.3211V38.06ZM29.1108 38.06V38.9H24.0708V38.06H23.2308V37.22H22.3908V31.34H23.2308V30.5H24.0708V29.66H24.9108V28.82H25.7508V27.98H27.4308V27.14H29.9508V27.98H31.6308V28.82H32.4708V34.7H31.6308V36.38H30.7908V37.22H29.9508V38.06H29.1108ZM24.9108 38.06H27.4308V37.22H28.2708V36.38H29.1108V35.54H29.9508V33.02H30.7908V29.66H29.9508V28.82H29.1108V27.98H28.2708V28.82H26.5908V29.66H25.7508V31.34H24.9108V33.86H24.0708V37.22H24.9108V38.06ZM45.9164 24.62V22.94H45.0764V22.1H48.4364V23.78H47.5964V25.46H46.7564V27.98H45.9164V29.66H45.0764V32.18H44.2364V34.7H43.3964V36.38H42.5564V37.22H45.0764V38.06H43.3964V38.9H40.8764V37.22H40.0364V38.06H38.3564V38.9H34.9964V38.06H34.1564V32.18H34.9964V30.5H35.8364V29.66H36.6764V28.82H37.5164V27.98H40.0364V27.14H42.5564V27.98H44.2364V27.14H45.0764V24.62H45.9164ZM36.6764 37.22H39.1964V36.38H40.0364V35.54H40.8764V34.7H41.7164V33.02H42.5564V31.34H43.3964V28.82H41.7164V27.98H40.8764V28.82H39.1964V29.66H38.3564V30.5H37.5164V32.18H36.6764V33.86H35.8364V36.38H36.6764V37.22ZM41.7164 35.54H40.8764V36.38H41.7164V35.54ZM53.4661 38.06V38.9H49.2661V38.06H48.4261V37.22H47.5861V33.02H48.4261V30.5H49.2661V29.66H50.1061V28.82H50.9461V27.98H52.6261V27.14H55.1461V27.98H56.8261V31.34H55.1461V28.82H51.7861V29.66H50.9461V31.34H50.1061V36.38H50.9461V37.22H54.3061V38.06H53.4661ZM55.1461 37.22H54.3061V36.38H55.1461V37.22ZM59.3442 35.54H60.1842V37.22H62.7042V38.06H61.8642V38.9H58.5042V38.06H57.6642V33.02H58.5042V31.34H59.3442V30.5H60.1842V29.66H61.0242V28.82H61.8642V27.98H63.5442V27.14H66.0642V27.98H69.4242V29.66H68.5842V31.34H67.7442V33.86H66.9042V35.54H66.0642V37.22H67.7442V38.06H66.9042V38.9H64.3842V38.06H63.5442V37.22H62.7042V36.38H63.5442V35.54H64.3842V34.7H65.2242V33.02H66.0642V30.5H66.9042V28.82H65.2242V27.98H64.3842V28.82H62.7042V29.66H61.8642V30.5H61.0242V32.18H60.1842V34.7H59.3442V35.54ZM64.3842 36.38H63.5442V37.22H64.3842V36.38H65.2242V35.54H64.3842V36.38ZM76.1339 38.06V38.9H71.0939V38.06H70.2539V35.54H71.9339V38.06H75.2939V37.22H76.1339V35.54H75.2939V34.7H74.4539V33.86H73.6139V33.02H72.7739V31.34H71.9339V29.66H72.7739V27.98H74.4539V27.14H76.9739V27.98H78.6539V28.82H79.4939V30.5H78.6539V31.34H76.9739V29.66H77.8139V28.82H76.9739V27.98H75.2939V28.82H74.4539V31.34H75.2939V32.18H76.1339V33.02H76.9739V33.86H77.8139V37.22H76.9739V38.06H76.1339ZM83.6883 38.06V38.9H81.1683V38.06H80.3283V36.38H81.1683V33.86H82.0083V31.34H82.8483V29.66H83.6883V28.82H82.0083V27.98H82.8483V27.14H84.5283V26.3H85.3683V25.46H86.2083V24.62H87.0483V26.3H86.2083V27.98H88.7283V28.82H85.3683V30.5H84.5283V33.02H83.6883V35.54H82.8483V37.22H85.3683V38.06H83.6883Z" fill="#294224"/>
</svg>
